<?xml version="1.0" encoding="UTF-8" standalone="no"?>
<!DOCTYPE svg PUBLIC "-//W3C//DTD SVG 1.1//EN"
 "http://www.w3.org/Graphics/SVG/1.1/DTD/svg11.dtd">
<!-- Generated by graphviz version 7.0.1 (0)
 -->
<!-- Pages: 1 -->
<svg width="972pt" height="1412pt"
 viewBox="0.00 0.00 972.00 1412.00" xmlns="http://www.w3.org/2000/svg" xmlns:xlink="http://www.w3.org/1999/xlink">
<g id="graph0" class="graph" transform="scale(1 1) rotate(0) translate(4 1408)">
<polygon fill="white" stroke="none" points="-4,4 -4,-1408 968,-1408 968,4 -4,4"/>
<!-- D0 -->
<g id="node1" class="node">
<title>D0</title>
<path fill="none" stroke="black" d="M668,-1404C668,-1404 638,-1404 638,-1404 632,-1404 626,-1398 626,-1392 626,-1392 626,-1380 626,-1380 626,-1374 632,-1368 638,-1368 638,-1368 668,-1368 668,-1368 674,-1368 680,-1374 680,-1380 680,-1380 680,-1392 680,-1392 680,-1398 674,-1404 668,-1404"/>
<text text-anchor="middle" x="653" y="-1382.3" font-family="Times,serif" font-size="14.00">begin</text>
</g>
<!-- D4 -->
<g id="node3" class="node">
<title>D4</title>
<polygon fill="none" stroke="black" points="653,-1332 489.28,-1314 653,-1296 816.72,-1314 653,-1332"/>
<text text-anchor="middle" x="653" y="-1310.3" font-family="Times,serif" font-size="14.00">(!FileExists(&quot;hfmTree.dat&quot;))?</text>
</g>
<!-- D0&#45;&gt;D4 -->
<g id="edge37" class="edge">
<title>D0&#45;&gt;D4</title>
<path fill="none" stroke="black" d="M653,-1367.7C653,-1360.41 653,-1351.73 653,-1343.54"/>
<polygon fill="black" stroke="black" points="656.5,-1343.62 653,-1333.62 649.5,-1343.62 656.5,-1343.62"/>
</g>
<!-- D1 -->
<g id="node2" class="node">
<title>D1</title>
<path fill="none" stroke="black" d="M947,-36C947,-36 917,-36 917,-36 911,-36 905,-30 905,-24 905,-24 905,-12 905,-12 905,-6 911,0 917,0 917,0 947,0 947,0 953,0 959,-6 959,-12 959,-12 959,-24 959,-24 959,-30 953,-36 947,-36"/>
<text text-anchor="middle" x="932" y="-14.3" font-family="Times,serif" font-size="14.00">end</text>
</g>
<!-- D9 -->
<g id="node4" class="node">
<title>D9</title>
<polygon fill="none" stroke="black" points="741,-1260 607,-1260 607,-1224 741,-1224 741,-1260"/>
<text text-anchor="middle" x="674" y="-1238.3" font-family="Times,serif" font-size="14.00">tree = InitHfmTree();</text>
</g>
<!-- D4&#45;&gt;D9 -->
<g id="edge3" class="edge">
<title>D4:s&#45;&gt;D9:n</title>
<path fill="none" stroke="black" d="M653,-1296C653,-1296 662.04,-1280.5 668.26,-1269.84"/>
<polygon fill="black" stroke="black" points="671.22,-1271.71 673.24,-1261.31 665.18,-1268.18 671.22,-1271.71"/>
<text text-anchor="middle" x="655.63" y="-1271.72" font-family="Times,serif" font-size="14.00">Y</text>
</g>
<!-- D13 -->
<g id="node5" class="node">
<title>D13</title>
<polygon fill="none" stroke="black" points="850,-1260 770,-1260 770,-1224 850,-1224 850,-1260"/>
<text text-anchor="middle" x="810" y="-1238.3" font-family="Times,serif" font-size="14.00">tree&#45;&gt;init();</text>
</g>
<!-- D4&#45;&gt;D13 -->
<g id="edge4" class="edge">
<title>D4:e&#45;&gt;D13:n</title>
<path fill="none" stroke="black" d="M822,-1314C822,-1314 821,-1296 821,-1296 821,-1296 816.6,-1281.58 813.36,-1271"/>
<polygon fill="black" stroke="black" points="816.71,-1269.99 810.44,-1261.45 810.02,-1272.03 816.71,-1269.99"/>
<text text-anchor="middle" x="814.81" y="-1280.92" font-family="Times,serif" font-size="14.00">N</text>
</g>
<!-- D15 -->
<g id="node6" class="node">
<title>D15</title>
<polygon fill="none" stroke="black" points="828.5,-1188 687.5,-1188 687.5,-1152 828.5,-1152 828.5,-1188"/>
<text text-anchor="middle" x="758" y="-1166.3" font-family="Times,serif" font-size="14.00">EnDecoder endecoder;</text>
</g>
<!-- D9&#45;&gt;D15 -->
<g id="edge1" class="edge">
<title>D9&#45;&gt;D15</title>
<path fill="none" stroke="black" d="M694.76,-1223.7C704.96,-1215.2 717.42,-1204.81 728.58,-1195.51"/>
<polygon fill="black" stroke="black" points="730.58,-1198.41 736.02,-1189.32 726.1,-1193.03 730.58,-1198.41"/>
</g>
<!-- D13&#45;&gt;D15 -->
<g id="edge2" class="edge">
<title>D13&#45;&gt;D15</title>
<path fill="none" stroke="black" d="M797.15,-1223.7C791.23,-1215.73 784.07,-1206.1 777.51,-1197.26"/>
<polygon fill="black" stroke="black" points="780.38,-1195.26 771.61,-1189.32 774.76,-1199.43 780.38,-1195.26"/>
</g>
<!-- D17 -->
<g id="node7" class="node">
<title>D17</title>
<polygon fill="none" stroke="black" points="859.5,-1116 656.5,-1116 656.5,-1080 859.5,-1080 859.5,-1116"/>
<text text-anchor="middle" x="758" y="-1094.3" font-family="Times,serif" font-size="14.00">InitEnDecoder(&amp;endecoder, tree);</text>
</g>
<!-- D15&#45;&gt;D17 -->
<g id="edge5" class="edge">
<title>D15&#45;&gt;D17</title>
<path fill="none" stroke="black" d="M758,-1151.7C758,-1144.41 758,-1135.73 758,-1127.54"/>
<polygon fill="black" stroke="black" points="761.5,-1127.62 758,-1117.62 754.5,-1127.62 761.5,-1127.62"/>
</g>
<!-- D19 -->
<g id="node8" class="node">
<title>D19</title>
<polygon fill="none" stroke="black" points="811.5,-1044 704.5,-1044 704.5,-1008 811.5,-1008 811.5,-1044"/>
<text text-anchor="middle" x="758" y="-1022.3" font-family="Times,serif" font-size="14.00">PrintHelpMsg();</text>
</g>
<!-- D17&#45;&gt;D19 -->
<g id="edge6" class="edge">
<title>D17&#45;&gt;D19</title>
<path fill="none" stroke="black" d="M758,-1079.7C758,-1072.41 758,-1063.73 758,-1055.54"/>
<polygon fill="black" stroke="black" points="761.5,-1055.62 758,-1045.62 754.5,-1055.62 761.5,-1055.62"/>
</g>
<!-- D21 -->
<g id="node9" class="node">
<title>D21</title>
<polygon fill="none" stroke="black" points="798,-972 718,-972 718,-936 798,-936 798,-972"/>
<text text-anchor="middle" x="758" y="-950.3" font-family="Times,serif" font-size="14.00">File in, out;</text>
</g>
<!-- D19&#45;&gt;D21 -->
<g id="edge7" class="edge">
<title>D19&#45;&gt;D21</title>
<path fill="none" stroke="black" d="M758,-1007.7C758,-1000.41 758,-991.73 758,-983.54"/>
<polygon fill="black" stroke="black" points="761.5,-983.62 758,-973.62 754.5,-983.62 761.5,-983.62"/>
</g>
<!-- D23 -->
<g id="node10" class="node">
<title>D23</title>
<polygon fill="none" stroke="black" points="758,-900 696.33,-882 758,-864 819.67,-882 758,-900"/>
<text text-anchor="middle" x="758" y="-878.3" font-family="Times,serif" font-size="14.00">(TRUE)?</text>
</g>
<!-- D21&#45;&gt;D23 -->
<g id="edge8" class="edge">
<title>D21&#45;&gt;D23</title>
<path fill="none" stroke="black" d="M758,-935.7C758,-928.41 758,-919.73 758,-911.54"/>
<polygon fill="black" stroke="black" points="761.5,-911.62 758,-901.62 754.5,-911.62 761.5,-911.62"/>
</g>
<!-- D28 -->
<g id="node11" class="node">
<title>D28</title>
<polygon fill="none" stroke="black" points="565,-828 445,-828 445,-792 565,-792 565,-828"/>
<text text-anchor="middle" x="505" y="-806.3" font-family="Times,serif" font-size="14.00">PrintLineHeader();</text>
</g>
<!-- D23&#45;&gt;D28 -->
<g id="edge35" class="edge">
<title>D23:s&#45;&gt;D28:n</title>
<path fill="none" stroke="black" d="M758,-864C758,-864 565.16,-836.56 516.2,-829.59"/>
<polygon fill="black" stroke="black" points="516.89,-826.16 506.5,-828.21 515.91,-833.09 516.89,-826.16"/>
<text text-anchor="middle" x="632.1" y="-850.6" font-family="Times,serif" font-size="14.00">Y</text>
</g>
<!-- D85 -->
<g id="node31" class="node">
<title>D85</title>
<polygon fill="none" stroke="black" points="964,-756 900,-756 900,-720 964,-720 964,-756"/>
<text text-anchor="middle" x="932" y="-734.3" font-family="Times,serif" font-size="14.00">return 0;</text>
</g>
<!-- D23&#45;&gt;D85 -->
<g id="edge9" class="edge">
<title>D23:e&#45;&gt;D85:n</title>
<path fill="none" stroke="black" d="M822,-882C822,-882 886,-828 886,-828 886,-828 913.52,-784.93 925.99,-765.41"/>
<polygon fill="black" stroke="black" points="928.75,-767.59 931.19,-757.28 922.85,-763.82 928.75,-767.59"/>
<text text-anchor="middle" x="877.38" y="-834.85" font-family="Times,serif" font-size="14.00">N</text>
</g>
<!-- D30 -->
<g id="node12" class="node">
<title>D30</title>
<polygon fill="none" stroke="black" points="482.5,-756 417.5,-756 417.5,-720 482.5,-720 482.5,-756"/>
<text text-anchor="middle" x="450" y="-734.3" font-family="Times,serif" font-size="14.00">Cmd op;</text>
</g>
<!-- D28&#45;&gt;D30 -->
<g id="edge10" class="edge">
<title>D28&#45;&gt;D30</title>
<path fill="none" stroke="black" d="M491.4,-791.7C485.08,-783.64 477.42,-773.89 470.41,-764.98"/>
<polygon fill="black" stroke="black" points="473.3,-763 464.37,-757.29 467.8,-767.32 473.3,-763"/>
</g>
<!-- D32 -->
<g id="node13" class="node">
<title>D32</title>
<polygon fill="none" stroke="black" points="305,-684 207,-684 207,-648 305,-648 305,-684"/>
<text text-anchor="middle" x="256" y="-662.3" font-family="Times,serif" font-size="14.00">ReadOp(&amp;op);</text>
</g>
<!-- D30&#45;&gt;D32 -->
<g id="edge11" class="edge">
<title>D30&#45;&gt;D32</title>
<path fill="none" stroke="black" d="M417.09,-725.13C389.19,-715.06 348.49,-700.37 314.98,-688.28"/>
<polygon fill="black" stroke="black" points="316.4,-685.07 305.8,-684.97 314.02,-691.66 316.4,-685.07"/>
</g>
<!-- D34 -->
<g id="node14" class="node">
<title>D34</title>
<polygon fill="none" stroke="black" points="159,-612 87.11,-594 159,-576 230.89,-594 159,-612"/>
<text text-anchor="middle" x="159" y="-590.3" font-family="Times,serif" font-size="14.00">(op == &#39;I&#39;)?</text>
</g>
<!-- D32&#45;&gt;D34 -->
<g id="edge12" class="edge">
<title>D32&#45;&gt;D34</title>
<path fill="none" stroke="black" d="M232.02,-647.7C218.03,-637.6 200.35,-624.84 185.89,-614.4"/>
<polygon fill="black" stroke="black" points="188.3,-611.83 178.15,-608.82 184.21,-617.51 188.3,-611.83"/>
</g>
<!-- D39 -->
<g id="node15" class="node">
<title>D39</title>
<polygon fill="none" stroke="black" points="134,-540 0,-540 0,-504 134,-504 134,-540"/>
<text text-anchor="middle" x="67" y="-518.3" font-family="Times,serif" font-size="14.00">tree = InitHfmTree();</text>
</g>
<!-- D34&#45;&gt;D39 -->
<g id="edge15" class="edge">
<title>D34:s&#45;&gt;D39:n</title>
<path fill="none" stroke="black" d="M159,-576C159,-576 101.72,-553.59 77.55,-544.13"/>
<polygon fill="black" stroke="black" points="79,-540.94 68.41,-540.55 76.45,-547.45 79,-540.94"/>
<text text-anchor="middle" x="113.28" y="-563.86" font-family="Times,serif" font-size="14.00">Y</text>
</g>
<!-- D41 -->
<g id="node16" class="node">
<title>D41</title>
<polygon fill="none" stroke="black" points="233,-540 157.76,-522 233,-504 308.24,-522 233,-540"/>
<text text-anchor="middle" x="233" y="-518.3" font-family="Times,serif" font-size="14.00">(op == &#39;E&#39;)?</text>
</g>
<!-- D34&#45;&gt;D41 -->
<g id="edge14" class="edge">
<title>D34:e&#45;&gt;D41:n</title>
<path fill="none" stroke="black" d="M234,-594C234,-594 233.51,-567.3 233.21,-551.45"/>
<polygon fill="black" stroke="black" points="236.71,-551.45 233.03,-541.51 229.71,-551.58 236.71,-551.45"/>
<text text-anchor="middle" x="228.61" y="-561.53" font-family="Times,serif" font-size="14.00">N</text>
</g>
<!-- D83 -->
<g id="node30" class="node">
<title>D83</title>
<polygon fill="none" stroke="black" points="368.5,-108 253.5,-108 253.5,-72 368.5,-72 368.5,-108"/>
<text text-anchor="middle" x="311" y="-86.3" font-family="Times,serif" font-size="14.00">Print(&quot;Success!&quot;);</text>
</g>
<!-- D39&#45;&gt;D83 -->
<g id="edge13" class="edge">
<title>D39&#45;&gt;D83</title>
<path fill="none" stroke="black" d="M66.14,-503.59C64.27,-465.67 60,-379 60,-379 60,-379 60,-379 60,-233 60,-233 79,-144 79,-144 79,-144 173.52,-122.41 241.9,-106.79"/>
<polygon fill="black" stroke="black" points="242.61,-110.21 251.58,-104.57 241.05,-103.39 242.61,-110.21"/>
</g>
<!-- D46 -->
<g id="node17" class="node">
<title>D46</title>
<polygon fill="none" stroke="black" points="227.5,-468 88.5,-468 88.5,-432 227.5,-432 227.5,-468"/>
<text text-anchor="middle" x="158" y="-446.3" font-family="Times,serif" font-size="14.00">ProcCmd(&amp;in, &amp;out);</text>
</g>
<!-- D41&#45;&gt;D46 -->
<g id="edge19" class="edge">
<title>D41:s&#45;&gt;D46:n</title>
<path fill="none" stroke="black" d="M233,-504C233,-504 188.59,-482.68 168.11,-472.86"/>
<polygon fill="black" stroke="black" points="169.89,-469.83 159.36,-468.65 166.87,-476.14 169.89,-469.83"/>
<text text-anchor="middle" x="195.56" y="-492.23" font-family="Times,serif" font-size="14.00">Y</text>
</g>
<!-- D50 -->
<g id="node19" class="node">
<title>D50</title>
<polygon fill="none" stroke="black" points="322,-468 245.92,-450 322,-432 398.08,-450 322,-468"/>
<text text-anchor="middle" x="322" y="-446.3" font-family="Times,serif" font-size="14.00">(op == &#39;D&#39;)?</text>
</g>
<!-- D41&#45;&gt;D50 -->
<g id="edge18" class="edge">
<title>D41:e&#45;&gt;D50:n</title>
<path fill="none" stroke="black" d="M311,-522C311,-522 316.5,-495.01 319.72,-479.19"/>
<polygon fill="black" stroke="black" points="323.13,-479.98 321.7,-469.48 316.27,-478.58 323.13,-479.98"/>
<text text-anchor="middle" x="310.36" y="-489.39" font-family="Times,serif" font-size="14.00">N</text>
</g>
<!-- D48 -->
<g id="node18" class="node">
<title>D48</title>
<polygon fill="none" stroke="black" points="255.5,-180 88.5,-180 88.5,-144 255.5,-144 255.5,-180"/>
<text text-anchor="middle" x="172" y="-158.3" font-family="Times,serif" font-size="14.00">Encode(endecoder, in, out);</text>
</g>
<!-- D46&#45;&gt;D48 -->
<g id="edge16" class="edge">
<title>D46&#45;&gt;D48</title>
<path fill="none" stroke="black" d="M156.75,-431.62C154.28,-397.27 149,-324 149,-324 149,-324 149,-288 149,-288 149,-288 159.98,-228.34 166.76,-191.45"/>
<polygon fill="black" stroke="black" points="170.16,-192.34 168.53,-181.87 163.28,-191.07 170.16,-192.34"/>
</g>
<!-- D48&#45;&gt;D83 -->
<g id="edge17" class="edge">
<title>D48&#45;&gt;D83</title>
<path fill="none" stroke="black" d="M206.72,-143.52C224.85,-134.39 247.23,-123.11 266.61,-113.35"/>
<polygon fill="black" stroke="black" points="268.02,-116.57 275.37,-108.94 264.87,-110.31 268.02,-116.57"/>
</g>
<!-- D55 -->
<g id="node20" class="node">
<title>D55</title>
<polygon fill="none" stroke="black" points="312.5,-396 173.5,-396 173.5,-360 312.5,-360 312.5,-396"/>
<text text-anchor="middle" x="243" y="-374.3" font-family="Times,serif" font-size="14.00">ProcCmd(&amp;in, &amp;out);</text>
</g>
<!-- D50&#45;&gt;D55 -->
<g id="edge23" class="edge">
<title>D50:s&#45;&gt;D55:n</title>
<path fill="none" stroke="black" d="M322,-432C322,-432 274.74,-410.46 253.33,-400.71"/>
<polygon fill="black" stroke="black" points="254.93,-397.59 244.38,-396.63 252.03,-403.96 254.93,-397.59"/>
<text text-anchor="middle" x="282.66" y="-420.15" font-family="Times,serif" font-size="14.00">Y</text>
</g>
<!-- D59 -->
<g id="node22" class="node">
<title>D59</title>
<polygon fill="none" stroke="black" points="406,-396 330.76,-378 406,-360 481.24,-378 406,-396"/>
<text text-anchor="middle" x="406" y="-374.3" font-family="Times,serif" font-size="14.00">(op == &#39;P&#39;)?</text>
</g>
<!-- D50&#45;&gt;D59 -->
<g id="edge22" class="edge">
<title>D50:e&#45;&gt;D59:n</title>
<path fill="none" stroke="black" d="M401,-450C401,-450 403.47,-423.3 404.94,-407.45"/>
<polygon fill="black" stroke="black" points="408.42,-407.79 405.86,-397.51 401.45,-407.14 408.42,-407.79"/>
<text text-anchor="middle" x="397.97" y="-417.53" font-family="Times,serif" font-size="14.00">N</text>
</g>
<!-- D57 -->
<g id="node21" class="node">
<title>D57</title>
<polygon fill="none" stroke="black" points="327.5,-324 158.5,-324 158.5,-288 327.5,-288 327.5,-324"/>
<text text-anchor="middle" x="243" y="-302.3" font-family="Times,serif" font-size="14.00">Decode(endecoder, in, out);</text>
</g>
<!-- D55&#45;&gt;D57 -->
<g id="edge20" class="edge">
<title>D55&#45;&gt;D57</title>
<path fill="none" stroke="black" d="M243,-359.7C243,-352.41 243,-343.73 243,-335.54"/>
<polygon fill="black" stroke="black" points="246.5,-335.62 243,-325.62 239.5,-335.62 246.5,-335.62"/>
</g>
<!-- D57&#45;&gt;D83 -->
<g id="edge21" class="edge">
<title>D57&#45;&gt;D83</title>
<path fill="none" stroke="black" d="M248.45,-287.85C260.16,-250.99 287.83,-163.92 302.12,-118.96"/>
<polygon fill="black" stroke="black" points="305.37,-120.27 305.07,-109.67 298.7,-118.15 305.37,-120.27"/>
</g>
<!-- D64 -->
<g id="node23" class="node">
<title>D64</title>
<polygon fill="none" stroke="black" points="448.5,-324 345.5,-324 345.5,-288 448.5,-288 448.5,-324"/>
<text text-anchor="middle" x="397" y="-302.3" font-family="Times,serif" font-size="14.00">ProcCmd(&amp;in);</text>
</g>
<!-- D59&#45;&gt;D64 -->
<g id="edge27" class="edge">
<title>D59:s&#45;&gt;D64:n</title>
<path fill="none" stroke="black" d="M406,-360C406,-360 402.4,-345.58 399.75,-335"/>
<polygon fill="black" stroke="black" points="403.19,-334.32 397.37,-325.47 396.4,-336.02 403.19,-334.32"/>
<text text-anchor="middle" x="397.87" y="-336.3" font-family="Times,serif" font-size="14.00">Y</text>
</g>
<!-- D68 -->
<g id="node25" class="node">
<title>D68</title>
<polygon fill="none" stroke="black" points="543,-324 466.92,-306 543,-288 619.08,-306 543,-324"/>
<text text-anchor="middle" x="543" y="-302.3" font-family="Times,serif" font-size="14.00">(op == &#39;T&#39;)?</text>
</g>
<!-- D59&#45;&gt;D68 -->
<g id="edge26" class="edge">
<title>D59:e&#45;&gt;D68:n</title>
<path fill="none" stroke="black" d="M484,-378C484,-378 518.23,-346.67 534.55,-331.74"/>
<polygon fill="black" stroke="black" points="536.87,-334.36 541.88,-325.02 532.14,-329.19 536.87,-334.36"/>
<text text-anchor="middle" x="504.27" y="-358.67" font-family="Times,serif" font-size="14.00">N</text>
</g>
<!-- D66 -->
<g id="node24" class="node">
<title>D66</title>
<polygon fill="none" stroke="black" points="470,-252 312,-252 312,-216 470,-216 470,-252"/>
<text text-anchor="middle" x="391" y="-230.3" font-family="Times,serif" font-size="14.00">PrintCode(endecoder, in);</text>
</g>
<!-- D64&#45;&gt;D66 -->
<g id="edge24" class="edge">
<title>D64&#45;&gt;D66</title>
<path fill="none" stroke="black" d="M395.52,-287.7C394.89,-280.41 394.15,-271.73 393.45,-263.54"/>
<polygon fill="black" stroke="black" points="396.94,-263.28 392.6,-253.61 389.96,-263.87 396.94,-263.28"/>
</g>
<!-- D66&#45;&gt;D83 -->
<g id="edge25" class="edge">
<title>D66&#45;&gt;D83</title>
<path fill="none" stroke="black" d="M381.19,-215.59C367.44,-191.18 342.31,-146.58 326.15,-117.89"/>
<polygon fill="black" stroke="black" points="329.34,-116.42 321.38,-109.43 323.24,-119.86 329.34,-116.42"/>
</g>
<!-- D73 -->
<g id="node26" class="node">
<title>D73</title>
<polygon fill="none" stroke="black" points="598,-252 488,-252 488,-216 598,-216 598,-252"/>
<text text-anchor="middle" x="543" y="-230.3" font-family="Times,serif" font-size="14.00">ProcCmd(&amp;out);</text>
</g>
<!-- D68&#45;&gt;D73 -->
<g id="edge31" class="edge">
<title>D68:s&#45;&gt;D73:n</title>
<path fill="none" stroke="black" d="M543,-288C543,-288 543,-273.94 543,-263.39"/>
<polygon fill="black" stroke="black" points="546.5,-263.51 543,-253.51 539.5,-263.51 546.5,-263.51"/>
<text text-anchor="middle" x="538" y="-264.5" font-family="Times,serif" font-size="14.00">Y</text>
</g>
<!-- D79 -->
<g id="node28" class="node">
<title>D79</title>
<polygon fill="none" stroke="black" points="843.5,-252 664.5,-252 664.5,-216 843.5,-216 843.5,-252"/>
<text text-anchor="middle" x="754" y="-230.3" font-family="Times,serif" font-size="14.00">Print(&quot;Unknow command!&quot;);</text>
</g>
<!-- D68&#45;&gt;D79 -->
<g id="edge32" class="edge">
<title>D68:e&#45;&gt;D79:n</title>
<path fill="none" stroke="black" d="M622,-306C622,-306 712.52,-268.97 743.64,-256.24"/>
<polygon fill="black" stroke="black" points="744.67,-259.6 752.6,-252.57 742.02,-253.12 744.67,-259.6"/>
<text text-anchor="middle" x="677.82" y="-284.92" font-family="Times,serif" font-size="14.00">N</text>
</g>
<!-- D75 -->
<g id="node27" class="node">
<title>D75</title>
<polygon fill="none" stroke="black" points="581.5,-180 456.5,-180 456.5,-144 581.5,-144 581.5,-180"/>
<text text-anchor="middle" x="519" y="-158.3" font-family="Times,serif" font-size="14.00">PrintTree(tree, out);</text>
</g>
<!-- D73&#45;&gt;D75 -->
<g id="edge28" class="edge">
<title>D73&#45;&gt;D75</title>
<path fill="none" stroke="black" d="M537.07,-215.7C534.51,-208.24 531.45,-199.32 528.59,-190.97"/>
<polygon fill="black" stroke="black" points="531.91,-189.86 525.36,-181.54 525.29,-192.13 531.91,-189.86"/>
</g>
<!-- D75&#45;&gt;D83 -->
<g id="edge29" class="edge">
<title>D75&#45;&gt;D83</title>
<path fill="none" stroke="black" d="M467.05,-143.52C438.65,-133.96 403.27,-122.05 373.39,-112"/>
<polygon fill="black" stroke="black" points="374.68,-108.74 364.08,-108.86 372.44,-115.37 374.68,-108.74"/>
</g>
<!-- D81 -->
<g id="node29" class="node">
<title>D81</title>
<polygon fill="none" stroke="black" points="844.5,-180 781.5,-180 781.5,-144 844.5,-144 844.5,-180"/>
<text text-anchor="middle" x="813" y="-158.3" font-family="Times,serif" font-size="14.00">continue</text>
</g>
<!-- D79&#45;&gt;D81 -->
<g id="edge30" class="edge">
<title>D79&#45;&gt;D81</title>
<path fill="none" stroke="black" d="M768.58,-215.7C775.44,-207.56 783.76,-197.69 791.34,-188.7"/>
<polygon fill="black" stroke="black" points="793.84,-191.16 797.61,-181.26 788.49,-186.65 793.84,-191.16"/>
</g>
<!-- D81&#45;&gt;D23 -->
<g id="edge34" class="edge">
<title>D81&#45;&gt;D23</title>
<path fill="none" stroke="black" d="M826.1,-180.35C837.76,-195.81 853,-216 853,-216 853,-216 872,-305 872,-305 872,-739 872,-739 872,-739 872,-739 808.73,-817.81 776.46,-858"/>
<polygon fill="black" stroke="black" points="773.83,-855.7 770.3,-865.69 779.28,-860.08 773.83,-855.7"/>
</g>
<!-- D83&#45;&gt;D23 -->
<g id="edge33" class="edge">
<title>D83&#45;&gt;D23</title>
<path fill="none" stroke="black" d="M368.81,-101.98C450.53,-117.51 590,-144 590,-144 590,-144 628,-288 628,-288 628,-288 647,-377 647,-377 647,-739 647,-739 647,-739 647,-739 708.6,-817.81 740.02,-858"/>
<polygon fill="black" stroke="black" points="737.1,-859.95 746.02,-865.67 742.62,-855.64 737.1,-859.95"/>
</g>
<!-- D85&#45;&gt;D1 -->
<g id="edge36" class="edge">
<title>D85&#45;&gt;D1</title>
<path fill="none" stroke="black" d="M932,-719.59C932,-681.67 932,-595 932,-595 932,-595 932,-595 932,-161 932,-161 932,-89.2 932,-47.71"/>
<polygon fill="black" stroke="black" points="935.5,-47.93 932,-37.93 928.5,-47.93 935.5,-47.93"/>
</g>
</g>
</svg>
